<svg width="61" height="61" viewBox="0 0 61 61" fill="none" xmlns="http://www.w3.org/2000/svg">
<path d="M30.1 0H13.2966L10.8126 4.23738H14.6117H30.1C44.4194 4.23738 55.9626 15.7806 55.9626 30.1C55.9626 44.4194 44.4194 55.9626 30.1 55.9626C15.7806 55.9626 4.23738 44.4194 4.23738 30.1C4.23738 27.3238 4.67573 24.6937 5.55243 22.2097H10.5204C9.49757 24.6937 8.91311 27.3238 8.91311 30.1C8.91311 41.7893 18.4107 51.2869 30.1 51.2869C41.7893 51.2869 51.2869 41.7893 51.2869 30.1C51.2869 18.4107 41.7893 8.91311 30.1 8.91311H15.3422H8.76699H8.32864L5.99078 13.2966H10.6665H17.3879H30.2461C39.5976 13.2966 47.0495 20.8947 47.0495 30.1C47.0495 39.4515 39.4515 46.9034 30.2461 46.9034C21.0408 46.9034 13.2966 39.4515 13.2966 30.1C13.2966 27.1777 14.0272 24.5476 15.3422 22.2097H20.8947C18.9951 24.4015 17.9723 27.1777 17.9723 30.1C17.9723 36.8214 23.5248 42.3738 30.2461 42.3738C36.9675 42.3738 42.5199 36.8214 42.5199 30.1C42.5199 23.3786 36.9675 17.8262 30.2461 17.8262H18.7029H12.8583H7.45194H3.36068L1.02282 22.0636C0.438349 24.6937 0 27.3238 0 30.1C0 46.7573 13.4427 60.2 30.1 60.2C46.7573 60.2 60.2 46.7573 60.2 30.1C60.2 13.4427 46.7573 0 30.1 0ZM30.1 22.2097C34.4835 22.2097 37.9903 25.7165 37.9903 30.1C37.9903 34.4835 34.4835 37.9903 30.1 37.9903C25.7165 37.9903 22.2097 34.4835 22.2097 30.1C22.2097 25.7165 25.7165 22.2097 30.1 22.2097Z" fill="#0168F5"/>
</svg>
